<?xml version="1.0" encoding="UTF-8" standalone="no"?>
<!DOCTYPE svg PUBLIC "-//W3C//DTD SVG 1.1//EN"
 "http://www.w3.org/Graphics/SVG/1.1/DTD/svg11.dtd">
<!-- Generated by graphviz version 2.47.0 (20210316.0004)
 -->
<!-- Title: dependencies Pages: 1 -->
<svg width="588pt" height="211pt"
 viewBox="0.00 0.00 588.00 211.00" xmlns="http://www.w3.org/2000/svg" xmlns:xlink="http://www.w3.org/1999/xlink">
<g id="graph0" class="graph" transform="scale(1 1) rotate(0) translate(4 207)">
<title>dependencies</title>
<polygon fill="white" stroke="transparent" points="-4,4 -4,-207 584,-207 584,4 -4,4"/>
<text text-anchor="start" x="269.01" y="-42.4" font-family="Times-12" font-weight="bold" font-size="14.00">Legend</text>
<polygon fill="#ffffb3" stroke="transparent" points="56,-10 56,-30 76,-30 76,-10 56,-10"/>
<text text-anchor="start" x="79.63" y="-15.4" font-family="Times-12" font-size="14.00"> &#160;Declarations</text>
<polygon fill="#8dd3c7" stroke="transparent" points="169,-10 169,-30 189,-30 189,-10 169,-10"/>
<text text-anchor="start" x="192.73" y="-15.4" font-family="Times-12" font-size="14.00"> &#160;Module</text>
<polygon fill="#80b1d3" stroke="transparent" points="255,-10 255,-30 275,-30 275,-10 255,-10"/>
<text text-anchor="start" x="278.78" y="-15.4" font-family="Times-12" font-size="14.00"> &#160;Bootstrap</text>
<polygon fill="#fdb462" stroke="transparent" points="352,-10 352,-30 372,-30 372,-10 352,-10"/>
<text text-anchor="start" x="375.67" y="-15.4" font-family="Times-12" font-size="14.00"> &#160;Providers</text>
<polygon fill="#fb8072" stroke="transparent" points="448,-10 448,-30 468,-30 468,-10 448,-10"/>
<text text-anchor="start" x="471.73" y="-15.4" font-family="Times-12" font-size="14.00"> &#160;Exports</text>
<g id="clust1" class="cluster">
<title>cluster_PaymentsModule</title>
<polygon fill="none" stroke="black" stroke-dasharray="1,5" points="8,-70 8,-195 572,-195 572,-70 8,-70"/>
</g>
<g id="clust6" class="cluster">
<title>cluster_PaymentsModule_providers</title>
<polygon fill="none" stroke="black" points="16,-78 16,-130 564,-130 564,-78 16,-78"/>
</g>
<!-- CustomersService -->
<g id="node1" class="node">
<title>CustomersService</title>
<ellipse fill="#fdb462" stroke="black" cx="475" cy="-104" rx="81.1" ry="18"/>
<text text-anchor="middle" x="475" y="-99.8" font-family="Times,serif" font-size="14.00">CustomersService</text>
</g>
<!-- PaymentsModule -->
<g id="node4" class="node">
<title>PaymentsModule</title>
<polygon fill="#8dd3c7" stroke="black" points="354.99,-187 351.99,-191 330.99,-191 327.99,-187 241.01,-187 241.01,-151 354.99,-151 354.99,-187"/>
<text text-anchor="middle" x="298" y="-164.8" font-family="Times,serif" font-size="14.00">PaymentsModule</text>
</g>
<!-- CustomersService&#45;&gt;PaymentsModule -->
<g id="edge1" class="edge">
<title>CustomersService&#45;&gt;PaymentsModule</title>
<path fill="none" stroke="black" d="M475,-122.11C475,-141.34 475,-169 475,-169 475,-169 365.47,-169 365.47,-169"/>
<polygon fill="black" stroke="black" points="365.47,-165.5 355.47,-169 365.47,-172.5 365.47,-165.5"/>
</g>
<!-- PaymentsService -->
<g id="node2" class="node">
<title>PaymentsService</title>
<ellipse fill="#fdb462" stroke="black" cx="298" cy="-104" rx="77.58" ry="18"/>
<text text-anchor="middle" x="298" y="-99.8" font-family="Times,serif" font-size="14.00">PaymentsService</text>
</g>
<!-- PaymentsService&#45;&gt;PaymentsModule -->
<g id="edge2" class="edge">
<title>PaymentsService&#45;&gt;PaymentsModule</title>
<path fill="none" stroke="black" d="M298,-122.11C298,-122.11 298,-140.99 298,-140.99"/>
<polygon fill="black" stroke="black" points="294.5,-140.99 298,-150.99 301.5,-140.99 294.5,-140.99"/>
</g>
<!-- TransactionsService -->
<g id="node3" class="node">
<title>TransactionsService</title>
<ellipse fill="#fdb462" stroke="black" cx="113" cy="-104" rx="89.16" ry="18"/>
<text text-anchor="middle" x="113" y="-99.8" font-family="Times,serif" font-size="14.00">TransactionsService</text>
</g>
<!-- TransactionsService&#45;&gt;PaymentsModule -->
<g id="edge3" class="edge">
<title>TransactionsService&#45;&gt;PaymentsModule</title>
<path fill="none" stroke="black" d="M113,-122.11C113,-141.34 113,-169 113,-169 113,-169 230.98,-169 230.98,-169"/>
<polygon fill="black" stroke="black" points="230.98,-172.5 240.98,-169 230.98,-165.5 230.98,-172.5"/>
</g>
</g>
</svg>
