<?xml version="1.0" encoding="UTF-8" standalone="no"?>
<!DOCTYPE svg PUBLIC "-//W3C//DTD SVG 1.1//EN"
 "http://www.w3.org/Graphics/SVG/1.1/DTD/svg11.dtd">
<!-- Generated by graphviz version 2.47.0 (20210316.0004)
 -->
<!-- Title: dependencies Pages: 1 -->
<svg width="719pt" height="211pt"
 viewBox="0.00 0.00 719.00 211.00" xmlns="http://www.w3.org/2000/svg" xmlns:xlink="http://www.w3.org/1999/xlink">
<g id="graph0" class="graph" transform="scale(1 1) rotate(0) translate(4 207)">
<title>dependencies</title>
<polygon fill="white" stroke="transparent" points="-4,4 -4,-207 715,-207 715,4 -4,4"/>
<text text-anchor="start" x="334.51" y="-42.4" font-family="Times-12" font-weight="bold" font-size="14.00">Legend</text>
<polygon fill="#ffffb3" stroke="transparent" points="121.5,-10 121.5,-30 141.5,-30 141.5,-10 121.5,-10"/>
<text text-anchor="start" x="145.13" y="-15.4" font-family="Times-12" font-size="14.00"> &#160;Declarations</text>
<polygon fill="#8dd3c7" stroke="transparent" points="234.5,-10 234.5,-30 254.5,-30 254.5,-10 234.5,-10"/>
<text text-anchor="start" x="258.23" y="-15.4" font-family="Times-12" font-size="14.00"> &#160;Module</text>
<polygon fill="#80b1d3" stroke="transparent" points="320.5,-10 320.5,-30 340.5,-30 340.5,-10 320.5,-10"/>
<text text-anchor="start" x="344.28" y="-15.4" font-family="Times-12" font-size="14.00"> &#160;Bootstrap</text>
<polygon fill="#fdb462" stroke="transparent" points="417.5,-10 417.5,-30 437.5,-30 437.5,-10 417.5,-10"/>
<text text-anchor="start" x="441.17" y="-15.4" font-family="Times-12" font-size="14.00"> &#160;Providers</text>
<polygon fill="#fb8072" stroke="transparent" points="513.5,-10 513.5,-30 533.5,-30 533.5,-10 513.5,-10"/>
<text text-anchor="start" x="537.23" y="-15.4" font-family="Times-12" font-size="14.00"> &#160;Exports</text>
<g id="clust1" class="cluster">
<title>cluster_AppModule</title>
<polygon fill="none" stroke="black" stroke-dasharray="1,5" points="8,-70 8,-195 703,-195 703,-70 8,-70"/>
</g>
<g id="clust3" class="cluster">
<title>cluster_AppModule_imports</title>
<polygon fill="none" stroke="black" points="16,-78 16,-130 695,-130 695,-78 16,-78"/>
</g>
<!-- CustomersModule -->
<g id="node1" class="node">
<title>CustomersModule</title>
<polygon fill="#8dd3c7" stroke="black" points="686.93,-122 683.93,-126 662.93,-126 659.93,-122 567.07,-122 567.07,-86 686.93,-86 686.93,-122"/>
<text text-anchor="middle" x="627" y="-99.8" font-family="Times,serif" font-size="14.00">CustomersModule</text>
</g>
<!-- AppModule -->
<g id="node6" class="node">
<title>AppModule</title>
<polygon fill="#8dd3c7" stroke="black" points="398.66,-187 395.66,-191 374.66,-191 371.66,-187 315.34,-187 315.34,-151 398.66,-151 398.66,-187"/>
<text text-anchor="middle" x="357" y="-164.8" font-family="Times,serif" font-size="14.00">AppModule</text>
</g>
<!-- CustomersModule&#45;&gt;AppModule -->
<g id="edge1" class="edge">
<title>CustomersModule&#45;&gt;AppModule</title>
<path fill="none" stroke="black" d="M627,-122.28C627,-143.32 627,-175 627,-175 627,-175 408.89,-175 408.89,-175"/>
<polygon fill="black" stroke="black" points="408.89,-171.5 398.89,-175 408.89,-178.5 408.89,-171.5"/>
</g>
<!-- DeliveriesModule -->
<g id="node2" class="node">
<title>DeliveriesModule</title>
<polygon fill="#8dd3c7" stroke="black" points="549.58,-122 546.58,-126 525.58,-126 522.58,-122 432.42,-122 432.42,-86 549.58,-86 549.58,-122"/>
<text text-anchor="middle" x="491" y="-99.8" font-family="Times,serif" font-size="14.00">DeliveriesModule</text>
</g>
<!-- DeliveriesModule&#45;&gt;AppModule -->
<g id="edge2" class="edge">
<title>DeliveriesModule&#45;&gt;AppModule</title>
<path fill="none" stroke="black" d="M491,-122.02C491,-139.37 491,-163 491,-163 491,-163 408.66,-163 408.66,-163"/>
<polygon fill="black" stroke="black" points="408.66,-159.5 398.66,-163 408.66,-166.5 408.66,-159.5"/>
</g>
<!-- PaymentsModule -->
<g id="node3" class="node">
<title>PaymentsModule</title>
<polygon fill="#8dd3c7" stroke="black" points="413.99,-122 410.99,-126 389.99,-126 386.99,-122 300.01,-122 300.01,-86 413.99,-86 413.99,-122"/>
<text text-anchor="middle" x="357" y="-99.8" font-family="Times,serif" font-size="14.00">PaymentsModule</text>
</g>
<!-- PaymentsModule&#45;&gt;AppModule -->
<g id="edge3" class="edge">
<title>PaymentsModule&#45;&gt;AppModule</title>
<path fill="none" stroke="black" d="M357,-122.11C357,-122.11 357,-140.99 357,-140.99"/>
<polygon fill="black" stroke="black" points="353.5,-140.99 357,-150.99 360.5,-140.99 353.5,-140.99"/>
</g>
<!-- ProductsModule -->
<g id="node4" class="node">
<title>ProductsModule</title>
<polygon fill="#8dd3c7" stroke="black" points="282.04,-122 279.04,-126 258.04,-126 255.04,-122 173.96,-122 173.96,-86 282.04,-86 282.04,-122"/>
<text text-anchor="middle" x="228" y="-99.8" font-family="Times,serif" font-size="14.00">ProductsModule</text>
</g>
<!-- ProductsModule&#45;&gt;AppModule -->
<g id="edge4" class="edge">
<title>ProductsModule&#45;&gt;AppModule</title>
<path fill="none" stroke="black" d="M228,-122.02C228,-139.37 228,-163 228,-163 228,-163 305.12,-163 305.12,-163"/>
<polygon fill="black" stroke="black" points="305.12,-166.5 315.12,-163 305.12,-159.5 305.12,-166.5"/>
</g>
<!-- TransactionsModule -->
<g id="node5" class="node">
<title>TransactionsModule</title>
<polygon fill="#8dd3c7" stroke="black" points="155.58,-122 152.58,-126 131.58,-126 128.58,-122 24.42,-122 24.42,-86 155.58,-86 155.58,-122"/>
<text text-anchor="middle" x="90" y="-99.8" font-family="Times,serif" font-size="14.00">TransactionsModule</text>
</g>
<!-- TransactionsModule&#45;&gt;AppModule -->
<g id="edge5" class="edge">
<title>TransactionsModule&#45;&gt;AppModule</title>
<path fill="none" stroke="black" d="M90,-122.28C90,-143.32 90,-175 90,-175 90,-175 305.28,-175 305.28,-175"/>
<polygon fill="black" stroke="black" points="305.28,-178.5 315.28,-175 305.28,-171.5 305.28,-178.5"/>
</g>
</g>
</svg>
