<?xml version="1.0" encoding="UTF-8" standalone="no"?>
<!DOCTYPE svg PUBLIC "-//W3C//DTD SVG 1.1//EN"
 "http://www.w3.org/Graphics/SVG/1.1/DTD/svg11.dtd">
<!-- Generated by graphviz version 2.47.0 (20210316.0004)
 -->
<!-- Title: dependencies Pages: 1 -->
<svg width="998pt" height="287pt"
 viewBox="0.00 0.00 998.00 287.00" xmlns="http://www.w3.org/2000/svg" xmlns:xlink="http://www.w3.org/1999/xlink">
<g id="graph0" class="graph" transform="scale(1 1) rotate(0) translate(4 283)">
<title>dependencies</title>
<polygon fill="white" stroke="transparent" points="-4,4 -4,-283 994,-283 994,4 -4,4"/>
<text text-anchor="start" x="474.01" y="-42.4" font-family="Times-12" font-weight="bold" font-size="14.00">Legend</text>
<polygon fill="#ffffb3" stroke="transparent" points="261,-10 261,-30 281,-30 281,-10 261,-10"/>
<text text-anchor="start" x="284.63" y="-15.4" font-family="Times-12" font-size="14.00"> &#160;Declarations</text>
<polygon fill="#8dd3c7" stroke="transparent" points="374,-10 374,-30 394,-30 394,-10 374,-10"/>
<text text-anchor="start" x="397.73" y="-15.4" font-family="Times-12" font-size="14.00"> &#160;Module</text>
<polygon fill="#80b1d3" stroke="transparent" points="460,-10 460,-30 480,-30 480,-10 460,-10"/>
<text text-anchor="start" x="483.78" y="-15.4" font-family="Times-12" font-size="14.00"> &#160;Bootstrap</text>
<polygon fill="#fdb462" stroke="transparent" points="557,-10 557,-30 577,-30 577,-10 557,-10"/>
<text text-anchor="start" x="580.67" y="-15.4" font-family="Times-12" font-size="14.00"> &#160;Providers</text>
<polygon fill="#fb8072" stroke="transparent" points="653,-10 653,-30 673,-30 673,-10 653,-10"/>
<text text-anchor="start" x="676.73" y="-15.4" font-family="Times-12" font-size="14.00"> &#160;Exports</text>
<g id="clust1" class="cluster">
<title>cluster_AppModule</title>
<polygon fill="none" stroke="black" stroke-dasharray="1,5" points="158,-146 158,-271 853,-271 853,-146 158,-146"/>
</g>
<g id="clust3" class="cluster">
<title>cluster_AppModule_imports</title>
<polygon fill="none" stroke="black" points="166,-154 166,-206 845,-206 845,-154 166,-154"/>
</g>
<g id="clust7" class="cluster">
<title>cluster_CustomersModule</title>
<polygon fill="none" stroke="black" stroke-dasharray="1,5" points="8,-70 8,-138 202,-138 202,-70 8,-70"/>
</g>
<g id="clust12" class="cluster">
<title>cluster_CustomersModule_providers</title>
<polygon fill="none" stroke="black" points="16,-78 16,-130 194,-130 194,-78 16,-78"/>
</g>
<g id="clust13" class="cluster">
<title>cluster_DeliveriesModule</title>
<polygon fill="none" stroke="black" stroke-dasharray="1,5" points="210,-70 210,-138 402,-138 402,-70 210,-70"/>
</g>
<g id="clust18" class="cluster">
<title>cluster_DeliveriesModule_providers</title>
<polygon fill="none" stroke="black" points="218,-78 218,-130 394,-130 394,-78 218,-78"/>
</g>
<g id="clust19" class="cluster">
<title>cluster_PaymentsModule</title>
<polygon fill="none" stroke="black" stroke-dasharray="1,5" points="410,-70 410,-138 794,-138 794,-70 410,-70"/>
</g>
<g id="clust24" class="cluster">
<title>cluster_PaymentsModule_providers</title>
<polygon fill="none" stroke="black" points="418,-78 418,-130 786,-130 786,-78 418,-78"/>
</g>
<g id="clust25" class="cluster">
<title>cluster_ProductsModule</title>
<polygon fill="none" stroke="black" stroke-dasharray="1,5" points="802,-70 802,-138 982,-138 982,-70 802,-70"/>
</g>
<g id="clust30" class="cluster">
<title>cluster_ProductsModule_providers</title>
<polygon fill="none" stroke="black" points="810,-78 810,-130 974,-130 974,-78 810,-78"/>
</g>
<!-- CustomersModule -->
<g id="node1" class="node">
<title>CustomersModule</title>
<polygon fill="#8dd3c7" stroke="black" points="293.93,-198 290.93,-202 269.93,-202 266.93,-198 174.07,-198 174.07,-162 293.93,-162 293.93,-198"/>
<text text-anchor="middle" x="234" y="-175.8" font-family="Times,serif" font-size="14.00">CustomersModule</text>
</g>
<!-- AppModule -->
<g id="node6" class="node">
<title>AppModule</title>
<polygon fill="#8dd3c7" stroke="black" points="545.66,-263 542.66,-267 521.66,-267 518.66,-263 462.34,-263 462.34,-227 545.66,-227 545.66,-263"/>
<text text-anchor="middle" x="504" y="-240.8" font-family="Times,serif" font-size="14.00">AppModule</text>
</g>
<!-- CustomersModule&#45;&gt;AppModule -->
<g id="edge1" class="edge">
<title>CustomersModule&#45;&gt;AppModule</title>
<path fill="none" stroke="black" d="M234,-198.28C234,-219.32 234,-251 234,-251 234,-251 452.11,-251 452.11,-251"/>
<polygon fill="black" stroke="black" points="452.11,-254.5 462.11,-251 452.11,-247.5 452.11,-254.5"/>
</g>
<!-- DeliveriesModule -->
<g id="node2" class="node">
<title>DeliveriesModule</title>
<polygon fill="#8dd3c7" stroke="black" points="428.58,-198 425.58,-202 404.58,-202 401.58,-198 311.42,-198 311.42,-162 428.58,-162 428.58,-198"/>
<text text-anchor="middle" x="370" y="-175.8" font-family="Times,serif" font-size="14.00">DeliveriesModule</text>
</g>
<!-- DeliveriesModule&#45;&gt;AppModule -->
<g id="edge2" class="edge">
<title>DeliveriesModule&#45;&gt;AppModule</title>
<path fill="none" stroke="black" d="M370,-198.02C370,-215.37 370,-239 370,-239 370,-239 452.34,-239 452.34,-239"/>
<polygon fill="black" stroke="black" points="452.34,-242.5 462.34,-239 452.34,-235.5 452.34,-242.5"/>
</g>
<!-- PaymentsModule -->
<g id="node3" class="node">
<title>PaymentsModule</title>
<polygon fill="#8dd3c7" stroke="black" points="560.99,-198 557.99,-202 536.99,-202 533.99,-198 447.01,-198 447.01,-162 560.99,-162 560.99,-198"/>
<text text-anchor="middle" x="504" y="-175.8" font-family="Times,serif" font-size="14.00">PaymentsModule</text>
</g>
<!-- PaymentsModule&#45;&gt;AppModule -->
<g id="edge3" class="edge">
<title>PaymentsModule&#45;&gt;AppModule</title>
<path fill="none" stroke="black" d="M504,-198.11C504,-198.11 504,-216.99 504,-216.99"/>
<polygon fill="black" stroke="black" points="500.5,-216.99 504,-226.99 507.5,-216.99 500.5,-216.99"/>
</g>
<!-- ProductsModule -->
<g id="node4" class="node">
<title>ProductsModule</title>
<polygon fill="#8dd3c7" stroke="black" points="837.04,-198 834.04,-202 813.04,-202 810.04,-198 728.96,-198 728.96,-162 837.04,-162 837.04,-198"/>
<text text-anchor="middle" x="783" y="-175.8" font-family="Times,serif" font-size="14.00">ProductsModule</text>
</g>
<!-- ProductsModule&#45;&gt;AppModule -->
<g id="edge4" class="edge">
<title>ProductsModule&#45;&gt;AppModule</title>
<path fill="none" stroke="black" d="M783,-198.28C783,-219.32 783,-251 783,-251 783,-251 555.77,-251 555.77,-251"/>
<polygon fill="black" stroke="black" points="555.77,-247.5 545.77,-251 555.77,-254.5 555.77,-247.5"/>
</g>
<!-- TransactionsModule -->
<g id="node5" class="node">
<title>TransactionsModule</title>
<polygon fill="#8dd3c7" stroke="black" points="710.58,-198 707.58,-202 686.58,-202 683.58,-198 579.42,-198 579.42,-162 710.58,-162 710.58,-198"/>
<text text-anchor="middle" x="645" y="-175.8" font-family="Times,serif" font-size="14.00">TransactionsModule</text>
</g>
<!-- TransactionsModule&#45;&gt;AppModule -->
<g id="edge5" class="edge">
<title>TransactionsModule&#45;&gt;AppModule</title>
<path fill="none" stroke="black" d="M645,-198.02C645,-215.37 645,-239 645,-239 645,-239 555.92,-239 555.92,-239"/>
<polygon fill="black" stroke="black" points="555.92,-235.5 545.92,-239 555.92,-242.5 555.92,-235.5"/>
</g>
<!-- CustomersService -->
<g id="node7" class="node">
<title>CustomersService</title>
<ellipse fill="#fdb462" stroke="black" cx="105" cy="-104" rx="81.1" ry="18"/>
<text text-anchor="middle" x="105" y="-99.8" font-family="Times,serif" font-size="14.00">CustomersService</text>
</g>
<!-- CustomersService&#45;&gt;CustomersModule -->
<g id="edge6" class="edge">
<title>CustomersService&#45;&gt;CustomersModule</title>
<path fill="none" stroke="black" d="M178.29,-111.85C178.29,-111.85 178.29,-151.73 178.29,-151.73"/>
<polygon fill="black" stroke="black" points="174.79,-151.73 178.29,-161.73 181.79,-151.73 174.79,-151.73"/>
</g>
<!-- CustomersService&#45;&gt;PaymentsModule -->
<g id="edge8" class="edge">
<title>CustomersService&#45;&gt;PaymentsModule</title>
<path fill="none" stroke="black" d="M182.29,-109.87C182.29,-119.11 182.29,-136 182.29,-136 182.29,-136 475.5,-136 475.5,-136 475.5,-136 475.5,-151.85 475.5,-151.85"/>
<polygon fill="black" stroke="black" points="472,-151.85 475.5,-161.85 479,-151.85 472,-151.85"/>
</g>
<!-- DeliveriesService -->
<g id="node8" class="node">
<title>DeliveriesService</title>
<ellipse fill="#fdb462" stroke="black" cx="306" cy="-104" rx="79.85" ry="18"/>
<text text-anchor="middle" x="306" y="-99.8" font-family="Times,serif" font-size="14.00">DeliveriesService</text>
</g>
<!-- DeliveriesService&#45;&gt;DeliveriesModule -->
<g id="edge7" class="edge">
<title>DeliveriesService&#45;&gt;DeliveriesModule</title>
<path fill="none" stroke="black" d="M348.57,-119.38C348.57,-119.38 348.57,-151.97 348.57,-151.97"/>
<polygon fill="black" stroke="black" points="345.07,-151.97 348.57,-161.97 352.07,-151.97 345.07,-151.97"/>
</g>
<!-- PaymentsService -->
<g id="node9" class="node">
<title>PaymentsService</title>
<ellipse fill="#fdb462" stroke="black" cx="504" cy="-104" rx="77.58" ry="18"/>
<text text-anchor="middle" x="504" y="-99.8" font-family="Times,serif" font-size="14.00">PaymentsService</text>
</g>
<!-- PaymentsService&#45;&gt;PaymentsModule -->
<g id="edge9" class="edge">
<title>PaymentsService&#45;&gt;PaymentsModule</title>
<path fill="none" stroke="black" d="M504,-122.01C504,-122.01 504,-151.85 504,-151.85"/>
<polygon fill="black" stroke="black" points="500.5,-151.85 504,-161.85 507.5,-151.85 500.5,-151.85"/>
</g>
<!-- TransactionsService -->
<g id="node10" class="node">
<title>TransactionsService</title>
<ellipse fill="#fdb462" stroke="black" cx="689" cy="-104" rx="89.16" ry="18"/>
<text text-anchor="middle" x="689" y="-99.8" font-family="Times,serif" font-size="14.00">TransactionsService</text>
</g>
<!-- TransactionsService&#45;&gt;PaymentsModule -->
<g id="edge10" class="edge">
<title>TransactionsService&#45;&gt;PaymentsModule</title>
<path fill="none" stroke="black" d="M636.63,-118.73C636.63,-131.86 636.63,-149 636.63,-149 636.63,-149 532.5,-149 532.5,-149 532.5,-149 532.5,-151.97 532.5,-151.97"/>
<polygon fill="black" stroke="black" points="529,-151.97 532.5,-161.97 536,-151.97 529,-151.97"/>
</g>
<!-- TransactionsService&#45;&gt;TransactionsModule -->
<g id="edge12" class="edge">
<title>TransactionsService&#45;&gt;TransactionsModule</title>
<path fill="none" stroke="black" d="M673.58,-122.01C673.58,-122.01 673.58,-151.85 673.58,-151.85"/>
<polygon fill="black" stroke="black" points="670.08,-151.85 673.58,-161.85 677.08,-151.85 670.08,-151.85"/>
</g>
<!-- ProductsService -->
<g id="node11" class="node">
<title>ProductsService</title>
<ellipse fill="#fdb462" stroke="black" cx="892" cy="-104" rx="73.57" ry="18"/>
<text text-anchor="middle" x="892" y="-99.8" font-family="Times,serif" font-size="14.00">ProductsService</text>
</g>
<!-- ProductsService&#45;&gt;ProductsModule -->
<g id="edge11" class="edge">
<title>ProductsService&#45;&gt;ProductsModule</title>
<path fill="none" stroke="black" d="M827.74,-113.02C827.74,-113.02 827.74,-151.74 827.74,-151.74"/>
<polygon fill="black" stroke="black" points="824.24,-151.74 827.74,-161.74 831.24,-151.74 824.24,-151.74"/>
</g>
</g>
</svg>
